<?xml version="1.0" encoding="utf-8"?>
<!-- Generator: Adobe Illustrator 17.1.0, SVG Export Plug-In . SVG Version: 6.00 Build 0)  -->
<!DOCTYPE svg PUBLIC "-//W3C//DTD SVG 1.1//EN" "http://www.w3.org/Graphics/SVG/1.1/DTD/svg11.dtd">
<svg version="1.1" id="Layer_1" xmlns="http://www.w3.org/2000/svg" xmlns:xlink="http://www.w3.org/1999/xlink" x="0px" y="0px"
	 viewBox="0 0 600 178" enable-background="new 0 0 600 178" xml:space="preserve">
<g>
	<path d="M18.4,142c-7.6-8.2-9.8-15.2-11.8-28.7c0-12.9,3.7-23.4,7.1-28.8c5.2-8.4,12.5-16.7,25.1-19.4c12.6-2.7,17.6-2.5,25.7-1.7
		c19.5,4.8,22.2,9.2,29,22.7c3.2,12.7,3.1,29.5,3.1,29.5l-0.2,37H71.6v-9.4c-6.4,9.1-14.9,10.5-25.6,10.5
		C35.3,153.7,26,150.3,18.4,142z M65.9,125.3c3.8-3.7,5.7-8.9,5.7-15.7s-1.9-12-5.7-15.7c-3.8-3.6-8.2-5.5-13.1-5.5
		c-4.9,0-9.3,1.9-13.1,5.6c-3.8,3.7-5.7,8.9-5.7,15.7c0,6.8,1.9,12,5.7,15.7c3.8,3.7,8.2,5.5,13.1,5.5
		C57.7,130.8,62.1,129,65.9,125.3z"/>
	<path d="M135.7,66.5v12.7c5.5-9,14.1-13.6,26.1-13.6c9.9,0,17.9,3.3,24,9.9c6.1,6.6,9.2,15.5,9.2,26.8v50.3h-26.2v-46.7
		c0-5.6-1.5-9.8-4.4-12.9c-2.9-3-7-4.6-12.1-4.6c-5.1,0-9.2,1.5-12.1,4.6c-2.9,3-4.4,7.3-4.4,12.9v46.7h-26.4V66.5H135.7z"/>
	<path d="M232.5,56.8c-3,3-6.6,4.5-11,4.5c-4.3,0-8-1.5-11-4.5c-3-3-4.5-6.7-4.5-11c0-4.4,1.5-8,4.5-11c3-3,6.6-4.5,11-4.5
		c4.3,0,8,1.5,11,4.5c3,3,4.5,6.7,4.5,11C237,50.1,235.5,53.8,232.5,56.8z M208.5,152.6V66.5h26.4v86.1H208.5z"/>
	<path fill="#E5625E" d="M280.6,76.6c0,4.1-1.4,7.5-4.2,10.3s-6.2,4.2-10.3,4.2c-4.1,0-7.5-1.4-10.3-4.2c-2.8-2.8-4.2-6.2-4.2-10.3
		c0-4.1,1.4-7.5,4.2-10.3c2.8-2.8,6.2-4.2,10.3-4.2c4.1,0,7.5,1.4,10.3,4.2C279.2,69.1,280.6,72.5,280.6,76.6z M280.6,138.2
		c0,4.1-1.4,7.5-4.2,10.3c-2.8,2.8-6.2,4.2-10.3,4.2c-4.1,0-7.5-1.4-10.3-4.2c-2.8-2.8-4.2-6.2-4.2-10.3c0-4.1,1.4-7.5,4.2-10.3
		c2.8-2.8,6.2-4.2,10.3-4.2c4.1,0,7.5,1.4,10.3,4.2C279.2,130.7,280.6,134.1,280.6,138.2z"/>
	<path d="M297.5,153.7V88.4V66.5v-21h26.4v29.8h26.1v27.8h-26.1v50.6"/>
	<path d="M372.2,141.5c-8.7-8.1-13-18.8-13-32.1s4.3-23.9,13-31.9c8.6-8,19.3-12,32.1-12c12.8,0,23.4,4,32,12
		c8.6,8,12.9,18.6,12.9,31.9s-4.3,24-12.8,32.1c-8.5,8.1-19.2,12.2-31.9,12.2C391.6,153.7,380.9,149.6,372.2,141.5z M417,125.6
		c3.5-3.7,5.2-9.1,5.2-16c0-7-1.8-12.3-5.4-16c-3.6-3.6-7.9-5.5-12.8-5.5c-4.9,0-9.2,1.8-12.7,5.5c-3.5,3.7-5.3,9-5.3,16
		c0,7,1.8,12.3,5.5,16c3.6,3.7,7.9,5.6,12.9,5.6C409.3,131.1,413.5,129.3,417,125.6z"/>
	<path d="M486.5,152.6h-26.4V38.4h26.4v64l26.7-35.9h35.5l-36.9,44l36.9,42.1h-35l-27.2-34.4V152.6z"/>
	<path d="M585,56.8c-3,3-6.6,4.5-11,4.5c-4.3,0-8-1.5-11-4.5c-3-3-4.5-6.7-4.5-11c0-4.4,1.5-8,4.5-11c3-3,6.6-4.5,11-4.5
		c4.3,0,8,1.5,11,4.5c3,3,4.5,6.7,4.5,11C589.4,50.1,587.9,53.8,585,56.8z M560.9,152.6V66.5h26.4v86.1H560.9z"/>
</g>
</svg>
